<?xml version="1.0" encoding="UTF-8" standalone="no"?>
<svg
   id="Layer_1"
   data-name="Layer 1"
   viewBox="0 0 181 45"
   version="1.1"
   sodipodi:docname="test.svg"
   width="181"
   height="45"
   inkscape:version="1.1.1 (3bf5ae0, 2021-09-20)"
   xmlns:inkscape="http://www.inkscape.org/namespaces/inkscape"
   xmlns:sodipodi="http://sodipodi.sourceforge.net/DTD/sodipodi-0.dtd"
   xmlns="http://www.w3.org/2000/svg"
   xmlns:svg="http://www.w3.org/2000/svg"
   xmlns:rdf="http://www.w3.org/1999/02/22-rdf-syntax-ns#"
   xmlns:cc="http://creativecommons.org/ns#"
   xmlns:dc="http://purl.org/dc/elements/1.1/">
  <sodipodi:namedview
     id="namedview19357"
     pagecolor="#ffffff"
     bordercolor="#666666"
     borderopacity="1.0"
     inkscape:pageshadow="2"
     inkscape:pageopacity="0.0"
     inkscape:pagecheckerboard="0"
     showgrid="false"
     inkscape:zoom="3.6961326"
     inkscape:cx="61.686099"
     inkscape:cy="-20.020927"
     inkscape:window-width="1853"
     inkscape:window-height="1025"
     inkscape:window-x="67"
     inkscape:window-y="27"
     inkscape:window-maximized="1"
     inkscape:current-layer="Layer_1" />
  <defs
     id="defs19321">
    <style
       id="style19307">.cls-1{fill:#fff;}.cls-1,.cls-2,.cls-5{fill-rule:evenodd;}.cls-2{fill:#2e2ea3;}.cls-3{mask:url(#mask);}.cls-4{mask:url(#mask-2-2);}.cls-5{fill:#3f3f3f;}.cls-6{mask:url(#mask-3);}.cls-7{mask:url(#mask-4-2);}</style>
    <mask
       id="mask"
       x="0.02"
       y="1.17"
       width="4.75"
       height="6.54"
       maskUnits="userSpaceOnUse">
      <g
         id="mask-2">
        <polygon
           id="path-1"
           class="cls-1"
           points="0.02,1.17 4.77,1.17 4.77,7.7 0.02,7.7 " />
      </g>
    </mask>
    <mask
       id="mask-2-2"
       x="0"
       y="1.17"
       width="4.77"
       height="6.54"
       maskUnits="userSpaceOnUse">
      <g
         id="mask-2-3"
         data-name="mask-2">
        <polygon
           id="path-1-2"
           data-name="path-1"
           class="cls-1"
           points="0.02,1.17 4.77,1.17 4.77,7.7 0.02,7.7 " />
      </g>
    </mask>
    <mask
       id="mask-3"
       x="163.33"
       y="9.12"
       width="17.55"
       height="17.86"
       maskUnits="userSpaceOnUse">
      <g
         id="mask-4">
        <polygon
           id="path-3"
           class="cls-1"
           points="163.33,9.12 180.88,9.12 180.88,26.98 163.33,26.98 " />
      </g>
    </mask>
    <mask
       id="mask-4-2"
       x="163.33"
       y="9.12"
       width="17.55"
       height="17.88"
       maskUnits="userSpaceOnUse">
      <g
         id="mask-4-3"
         data-name="mask-4">
        <polygon
           id="path-3-2"
           data-name="path-3"
           class="cls-1"
           points="163.33,9.12 180.88,9.12 180.88,26.98 163.33,26.98 " />
      </g>
    </mask>
  </defs>
  <title
     id="title19323">Artboard 1</title>
  <g
     id="g19146"
     transform="matrix(0.36273677,0,0,0.36273677,-20.140085,-38.122255)"
     style="fill:#2e2ea3;fill-opacity:1">
    <path
       class="st0"
       d="m 141.2,137.3 c 0.1,-0.7 0.2,-1.3 0.2,-2 0,-6.4 -5.2,-11.6 -11.6,-11.6 -0.9,0 -1.7,0.1 -2.6,0.3 -4.1,-10.2 -14.1,-17.4 -25.8,-17.4 -15.4,0 -27.8,12.5 -27.8,27.8 0,0.2 0,0.3 0,0.5 8,2.1 15.1,10 19.2,12.9 4.3,3.1 10.2,5.1 16.2,5.1 6,0 11.6,-1.9 16.3,-5.2 6.3,-4.2 10.6,-5.4 14.7,-5.1 5.7,0.4 10.4,4.9 10.4,10.7 0,5.8 -4.5,10.5 -10.2,10.5 -3.2,0.1 -6.6,-1.1 -9.2,-3.4 -0.2,-0.2 0,-0.6 0.3,-0.4 3.5,2.1 8.1,3.1 11.4,1.4 2.5,-1.1 4.1,-3.7 4.3,-6.7 0.2,-4.2 -2.7,-6.7 -6.2,-7.1 -2.9,-0.4 -4.6,1.1 -5.5,1.8 -0.9,0.7 -2.8,2.6 -5.8,8.4 -2.5,4.8 -6.7,10.4 -11.6,12.5 v 0 H 140 v 0 0 c 9.1,0 16.5,-7.4 16.5,-16.5 -0.1,-8.8 -6.8,-15.9 -15.3,-16.5 z m -32.2,9.9 c -5.3,0 -10.2,-1.3 -14.6,-3.6 3.8,-2.7 8.4,-4.4 13.3,-4.7 -0.6,-0.9 -0.9,-1.8 -0.8,-3.2 0.1,-1.9 0.9,-4.6 2.2,-6 1.2,1.4 2,4.1 2.2,6 0.1,1.4 -0.2,2.3 -0.8,3.2 4.9,0.3 9.5,1.9 13.3,4.7 -4.6,2.3 -9.5,3.6 -14.8,3.6 z"
       id="path19136"
       style="fill:#2e2ea3;fill-opacity:1" />
    <path
       class="st0"
       d="m 90.9,161.4 c -2.7,-3.3 -4.9,-6.2 -10.8,-15 -6.1,-9 -14.4,-9.2 -17.4,-6.6 -3.4,3.2 -5.5,7.7 -5.5,12.7 0,9.8 7.9,17.7 17.7,17.7 h 25.3 v 0 c -3.6,-1.6 -6.6,-5.6 -9.3,-8.8 z"
       id="path19138"
       style="fill:#2e2ea3;fill-opacity:1" />
    <circle
       transform="matrix(0.9975,-0.07088967,0.07088967,0.9975,-7.9917,4.9684)"
       class="st0"
       cx="66"
       cy="115.1"
       id="ellipse19140"
       r="4.5999999"
       style="fill:#2e2ea3;fill-opacity:1" />
    <path
       class="st0"
       d="m 60.6,128.2 c 2,0 3.7,-1.6 3.7,-3.7 0,-2 -1.6,-3.7 -3.7,-3.7 -2.1,0 -3.7,1.6 -3.7,3.7 0.1,2.1 1.7,3.7 3.7,3.7 z"
       id="path19142"
       style="fill:#2e2ea3;fill-opacity:1" />
    <path
       class="st0"
       d="m 63.7,130.9 c 0,1.4 1.2,2.6 2.6,2.6 1.4,0 2.6,-1.2 2.6,-2.6 0,-1.4 -1.2,-2.6 -2.6,-2.6 -1.4,0 -2.6,1.1 -2.6,2.6 z"
       id="path19144"
       style="fill:#2e2ea3;fill-opacity:1" />
  </g>
  <g
     id="g19172"
     transform="matrix(0.36273677,0,0,0.36273677,-20.140085,-38.122255)"
     style="fill:#3f3f3f;fill-opacity:1">
    <path
       class="st1"
       d="m 245.5,131.4 c -0.3,0 -0.6,-0.1 -0.8,-0.1 H 244 c -2.5,0 -4.6,0.6 -6.2,1.7 -1.1,0.8 -2,1.7 -2.8,2.7 0,-0.4 0,-0.8 0,-1.3 0,-1 -0.1,-1.9 -0.2,-2.7 0,-0.2 -0.2,-0.4 -0.4,-0.4 -0.3,0 -0.7,-0.1 -1,-0.1 -0.3,0 -0.6,0 -1,0 -0.3,0 -0.6,0 -0.9,0 -0.3,0 -0.6,0.1 -1,0.1 -0.2,0 -0.4,0.2 -0.4,0.4 v 31.7 c 0,0.2 0.2,0.4 0.4,0.4 0.3,0 0.6,0.1 1.1,0.1 0.5,0 0.8,0 1,0 0.3,0 0.6,0 1,0 0.5,0 0.8,-0.1 1.1,-0.1 0.2,0 0.4,-0.2 0.4,-0.4 v -16.3 c 0,-4 0.8,-6.9 2.4,-8.6 1.6,-1.7 3.8,-2.5 6.4,-2.5 h 0.6 c 0.2,0 0.4,0 0.7,0.1 0,0 0,0 0.1,0 0.2,0 0.4,-0.1 0.4,-0.4 0.1,-0.6 0.2,-1.3 0.2,-2 0,-0.6 -0.1,-1.3 -0.2,-2.1 0.1,0 0,-0.2 -0.2,-0.2 z"
       id="path19148"
       style="fill:#3f3f3f;fill-opacity:1" />
    <path
       class="st1"
       d="m 273.8,134.8 c -1.1,-1.3 -2.6,-2.3 -4.2,-3.1 -1.7,-0.7 -3.6,-1.1 -5.7,-1.1 -2.5,0 -4.8,0.5 -6.6,1.3 -1.8,0.9 -3.4,2.2 -4.5,3.7 -1.2,1.6 -2,3.4 -2.6,5.5 -0.6,2.1 -0.9,4.3 -0.9,6.6 0,2.4 0.3,4.7 0.9,6.7 0.6,2.1 1.6,3.9 2.9,5.3 1.3,1.5 3,2.7 5,3.5 2,0.8 4.4,1.2 7.2,1.2 1.9,0 3.7,-0.1 5.4,-0.4 1.6,-0.3 3.1,-0.7 4.3,-1.3 0.2,-0.1 0.3,-0.3 0.3,-0.4 0,-0.6 -0.1,-1.2 -0.3,-1.8 -0.1,-0.7 -0.3,-1.3 -0.5,-1.8 -0.1,-0.2 -0.2,-0.3 -0.4,-0.3 0,0 -0.1,0 -0.1,0 -1.3,0.4 -2.6,0.8 -3.9,1.1 -1.3,0.3 -2.7,0.4 -4.3,0.4 -3.7,0 -6.6,-1 -8.4,-2.8 -1.8,-1.8 -2.7,-4.7 -2.8,-8.6 h 22.1 c 0.2,0 0.4,-0.2 0.4,-0.4 0,-0.4 0.1,-0.9 0.1,-1.5 0,-0.6 0,-1.1 0,-1.4 0,-2.1 -0.3,-4.1 -0.9,-5.9 -0.5,-1.6 -1.4,-3.2 -2.5,-4.5 z m -19.1,9.6 c 0.4,-2.9 1.3,-5.2 2.7,-6.8 1.5,-1.7 3.7,-2.5 6.4,-2.5 1.5,0 2.8,0.3 3.8,0.8 1.1,0.5 1.9,1.3 2.6,2.1 0.7,0.9 1.2,1.9 1.5,3.1 0.3,1.1 0.4,2.1 0.5,3.2 h -17.5 z"
       id="path19150"
       style="fill:#3f3f3f;fill-opacity:1" />
    <path
       class="st1"
       d="m 294.2,130.7 c -1.7,0 -3.3,0.1 -4.9,0.3 -1.6,0.2 -2.9,0.5 -4,0.9 -0.2,0.1 -0.3,0.2 -0.3,0.4 0,0.7 0.1,1.4 0.2,2.1 0.2,0.8 0.3,1.3 0.6,1.7 0.1,0.1 0.2,0.2 0.4,0.2 0,0 0.1,0 0.1,0 1.1,-0.3 2.3,-0.6 3.6,-0.8 1.3,-0.2 2.8,-0.3 4.5,-0.3 2.4,0 4.2,0.6 5.4,1.8 1.2,1.2 1.8,3.1 1.8,5.7 v 1.4 c -0.6,-0.1 -1.3,-0.1 -2.2,-0.2 -1.1,-0.1 -2.4,-0.2 -3.9,-0.2 -1.9,0 -3.7,0.2 -5.4,0.7 -1.6,0.5 -3.1,1.2 -4.2,2.1 -1.2,0.9 -2.1,2.1 -2.8,3.4 -0.7,1.4 -1,2.9 -1,4.6 0,3.6 1.2,6.2 3.5,7.8 2.3,1.6 5.4,2.4 9.3,2.4 1.9,0 3.9,-0.1 6,-0.4 2.1,-0.3 3.9,-0.6 5.3,-0.9 0.2,0 0.4,-0.2 0.4,-0.4 v -21 c 0,-3.9 -1,-6.8 -3.1,-8.6 -2.1,-1.8 -5.2,-2.7 -9.3,-2.7 z m 7.3,28.9 c -0.9,0.2 -1.9,0.3 -2.9,0.4 -1.1,0.1 -2.3,0.2 -3.6,0.2 -1,0 -2,-0.1 -2.9,-0.2 -0.9,-0.1 -1.8,-0.4 -2.6,-0.8 -0.8,-0.4 -1.4,-1 -1.8,-1.7 -0.5,-0.8 -0.7,-1.8 -0.7,-3.1 0,-2 0.8,-3.5 2.4,-4.6 1.6,-1.1 4,-1.7 6.9,-1.7 0.9,0 1.9,0.1 3,0.2 0.9,0.1 1.6,0.2 2.2,0.2 z"
       id="path19152"
       style="fill:#3f3f3f;fill-opacity:1" />
    <path
       class="st1"
       d="m 346.2,130.7 c -1.2,0 -2.4,0.2 -3.4,0.6 -1,0.4 -1.9,0.8 -2.7,1.4 -0.8,0.6 -1.5,1.2 -2.1,2 -0.4,0.5 -0.8,1 -1.1,1.4 -0.3,-0.6 -0.6,-1.2 -0.9,-1.7 -0.5,-0.7 -1,-1.4 -1.7,-1.9 -0.7,-0.5 -1.5,-1 -2.4,-1.3 -0.9,-0.3 -2,-0.5 -3.2,-0.5 -1.3,0 -2.5,0.2 -3.6,0.6 -1.1,0.4 -2,0.9 -2.8,1.5 -0.8,0.6 -1.5,1.3 -2.1,2.1 -0.2,0.3 -0.5,0.6 -0.7,0.9 0,-0.4 0,-0.7 0,-1.2 0,-1 -0.1,-2 -0.2,-2.7 0,-0.2 -0.2,-0.4 -0.4,-0.4 -0.3,0 -0.7,-0.1 -1,-0.1 -0.3,0 -0.6,0 -1,0 -0.3,0 -0.6,0 -0.9,0 -0.3,0 -0.6,0.1 -1,0.1 -0.2,0 -0.4,0.2 -0.4,0.4 v 31.7 c 0,0.2 0.2,0.4 0.4,0.4 0.3,0 0.6,0.1 1.1,0.1 0.5,0 0.8,0 1,0 0.3,0 0.6,0 1,0 0.5,0 0.8,-0.1 1.1,-0.1 0.2,0 0.4,-0.2 0.4,-0.4 v -15.9 c 0,-1.9 0.2,-3.6 0.6,-5.1 0.4,-1.5 1,-2.9 1.8,-4 0.7,-1.1 1.6,-2 2.7,-2.6 1,-0.6 2.1,-0.9 3.3,-0.9 1.8,0 3.1,0.7 4,2.1 1,1.5 1.4,3.7 1.4,6.8 v 19.6 c 0,0.2 0.2,0.4 0.4,0.4 0.3,0 0.6,0.1 1.1,0.1 0.5,0 0.8,0 1,0 0.3,0 0.6,0 1,0 0.5,0 0.8,-0.1 1.1,-0.1 0.2,0 0.4,-0.2 0.4,-0.4 V 145 c 0,-1.3 0.2,-2.6 0.5,-3.8 0.3,-1.2 0.8,-2.2 1.5,-3.1 0.6,-0.9 1.4,-1.5 2.3,-2 0.9,-0.5 2,-0.8 3.3,-0.8 2.1,0 3.5,0.7 4.6,2.2 1,1.5 1.6,4 1.6,7.2 v 18.7 c 0,0.2 0.2,0.4 0.4,0.4 0.3,0 0.6,0.1 1.1,0.1 0.5,0 0.8,0 1,0 0.3,0 0.6,0 1,0 0.5,0 0.8,-0.1 1.1,-0.1 0.2,0 0.4,-0.2 0.4,-0.4 v -20.2 c 0,-4 -0.9,-7.2 -2.5,-9.3 -1.9,-2.1 -4.7,-3.2 -8.5,-3.2 z"
       id="path19154"
       style="fill:#3f3f3f;fill-opacity:1" />
    <path
       class="st1"
       d="m 402.8,130.7 c -1.7,0 -3.3,0.1 -4.9,0.3 -1.6,0.2 -2.9,0.5 -4,0.9 -0.2,0.1 -0.3,0.2 -0.3,0.4 0,0.7 0.1,1.4 0.2,2.1 0.2,0.8 0.3,1.3 0.6,1.7 0.1,0.1 0.2,0.2 0.4,0.2 0,0 0.1,0 0.1,0 1.1,-0.3 2.3,-0.6 3.6,-0.8 1.3,-0.2 2.8,-0.3 4.5,-0.3 2.4,0 4.2,0.6 5.4,1.8 1.2,1.2 1.8,3.1 1.8,5.7 v 1.4 c -0.6,-0.1 -1.3,-0.1 -2.2,-0.2 -1.1,-0.1 -2.4,-0.2 -3.9,-0.2 -1.9,0 -3.7,0.2 -5.4,0.7 -1.6,0.5 -3.1,1.2 -4.2,2.1 -1.2,0.9 -2.1,2.1 -2.8,3.4 -0.7,1.4 -1,2.9 -1,4.6 0,3.6 1.2,6.2 3.5,7.8 2.3,1.6 5.4,2.4 9.3,2.4 1.9,0 3.9,-0.1 6,-0.4 2.1,-0.3 3.9,-0.6 5.3,-0.9 0.2,0 0.4,-0.2 0.4,-0.4 v -21 c 0,-3.9 -1,-6.8 -3.1,-8.6 -2.1,-1.8 -5.2,-2.7 -9.3,-2.7 z m 7.3,28.9 c -0.9,0.2 -1.9,0.3 -2.9,0.4 -1.1,0.1 -2.3,0.2 -3.6,0.2 -1,0 -2,-0.1 -2.9,-0.2 -0.9,-0.1 -1.8,-0.4 -2.6,-0.8 -0.8,-0.4 -1.4,-1 -1.8,-1.7 -0.5,-0.8 -0.7,-1.8 -0.7,-3.1 0,-2 0.8,-3.5 2.4,-4.6 1.6,-1.1 4,-1.7 6.9,-1.7 0.9,0 1.9,0.1 3,0.2 0.9,0.1 1.6,0.2 2.2,0.2 z"
       id="path19156"
       style="fill:#3f3f3f;fill-opacity:1" />
    <path
       class="st1"
       d="m 445.7,161.1 c -0.2,-0.7 -0.4,-1.3 -0.6,-1.8 -0.1,-0.2 -0.2,-0.2 -0.4,-0.2 -0.1,0 -0.1,0 -0.2,0 -0.9,0.3 -1.9,0.6 -3,0.8 -1.1,0.2 -2.3,0.3 -3.5,0.3 -3.5,0 -6.3,-1 -8.3,-3 -2,-2 -3.1,-5.2 -3.1,-9.5 0,-1.9 0.2,-3.6 0.7,-5.1 0.4,-1.5 1.1,-2.8 2,-3.9 0.9,-1.1 2,-2 3.3,-2.6 1.3,-0.6 2.9,-0.9 4.7,-0.9 1.4,0 2.8,0.1 4,0.3 1.2,0.2 2.3,0.4 3.1,0.7 0,0 0.1,0 0.1,0 0.2,0 0.3,-0.1 0.4,-0.3 0.2,-0.4 0.3,-1 0.5,-1.8 0.1,-0.7 0.2,-1.4 0.2,-2 0,-0.2 -0.1,-0.4 -0.3,-0.4 -0.8,-0.3 -2,-0.6 -3.5,-0.8 -1.4,-0.2 -3,-0.3 -4.6,-0.3 -2.6,0 -4.9,0.4 -6.9,1.3 -2,0.9 -3.7,2.1 -5,3.6 -1.3,1.5 -2.3,3.3 -3,5.4 -0.7,2 -1,4.3 -1,6.7 0,5.5 1.4,9.7 4.2,12.6 2.8,2.9 6.8,4.4 12.1,4.4 1.6,0 3.1,-0.1 4.5,-0.4 1.3,-0.3 2.6,-0.6 3.6,-0.9 0.2,-0.1 0.3,-0.3 0.3,-0.5 0,-0.4 -0.2,-1 -0.3,-1.7 z"
       id="path19158"
       style="fill:#3f3f3f;fill-opacity:1" />
    <path
       class="st1"
       d="m 466.4,159.6 c -0.1,0 -0.1,-0.1 -0.2,-0.1 0,0 -0.1,0 -0.1,0 -1,0.4 -2.2,0.5 -3.6,0.5 -0.6,0 -1.1,0 -1.6,-0.1 -0.5,-0.1 -0.9,-0.3 -1.3,-0.6 -0.4,-0.3 -0.7,-0.7 -0.9,-1.2 -0.2,-0.5 -0.4,-1.3 -0.4,-2.3 v -20.2 h 8.1 c 0.2,0 0.4,-0.1 0.4,-0.4 0,-0.2 0.1,-0.5 0.1,-0.9 0,-0.3 0,-0.7 0,-1 0,-0.3 0,-0.7 0,-1 0,-0.3 -0.1,-0.6 -0.1,-0.8 0,-0.2 -0.2,-0.4 -0.4,-0.4 h -8.1 v -9.3 c 0,-0.2 -0.2,-0.4 -0.4,-0.4 h -0.2 c -0.1,0 -0.2,0 -0.3,0.1 l -3.8,3.8 c -0.1,0.1 -0.1,0.2 -0.1,0.3 v 5.5 h -3.7 c -0.2,0 -0.4,0.1 -0.4,0.4 0,0.2 -0.1,0.5 -0.1,0.8 0,0.3 0,0.6 0,1 0,0.3 0,0.7 0,1 0,0.4 0.1,0.6 0.1,0.9 0,0.2 0.2,0.4 0.4,0.4 h 3.7 v 20.3 c 0,3 0.8,5.2 2.4,6.5 1.5,1.3 3.6,2 6,2 2,0 3.8,-0.2 5.3,-0.7 0.2,-0.1 0.3,-0.3 0.3,-0.5 -0.1,-1.3 -0.3,-2.5 -0.6,-3.5 -0.4,0.1 -0.4,0 -0.5,-0.1 z"
       id="path19160"
       style="fill:#3f3f3f;fill-opacity:1" />
    <path
       class="st1"
       d="m 496.5,135.6 c -1.2,-1.5 -2.7,-2.8 -4.6,-3.6 -1.8,-0.9 -4,-1.3 -6.4,-1.3 -2.4,0 -4.6,0.4 -6.4,1.3 -1.8,0.9 -3.4,2.1 -4.6,3.6 -1.2,1.5 -2.1,3.4 -2.7,5.4 -0.6,2.1 -0.9,4.3 -0.9,6.6 0,2.3 0.3,4.6 0.9,6.6 0.6,2.1 1.5,3.9 2.7,5.4 1.2,1.5 2.8,2.8 4.6,3.6 1.8,0.9 4,1.3 6.4,1.3 2.4,0 4.6,-0.4 6.4,-1.3 1.8,-0.9 3.3,-2.1 4.6,-3.6 1.2,-1.5 2.1,-3.4 2.7,-5.4 0.6,-2.1 0.9,-4.3 0.9,-6.6 0,-2.3 -0.3,-4.6 -0.9,-6.6 -0.6,-2 -1.5,-3.9 -2.7,-5.4 z m -3.9,21.3 c -1.6,2.2 -3.9,3.3 -7.1,3.3 -3.2,0 -5.5,-1.1 -7.1,-3.3 -1.6,-2.2 -2.4,-5.3 -2.4,-9.2 0,-3.9 0.8,-7 2.4,-9.2 1.6,-2.2 3.9,-3.3 7.1,-3.3 3.2,0 5.5,1.1 7.1,3.3 1.6,2.2 2.4,5.3 2.4,9.2 0,3.9 -0.8,7 -2.4,9.2 z"
       id="path19162"
       style="fill:#3f3f3f;fill-opacity:1" />
    <path
       class="st1"
       d="m 521.1,131.4 c -0.3,0 -0.6,-0.1 -0.8,-0.1 h -0.7 c -2.5,0 -4.6,0.6 -6.2,1.7 -1.1,0.8 -2,1.7 -2.8,2.7 0,-0.4 0,-0.8 0,-1.3 0,-1 -0.1,-1.9 -0.2,-2.7 0,-0.2 -0.2,-0.4 -0.4,-0.4 -0.3,0 -0.7,-0.1 -1,-0.1 -0.3,0 -0.6,0 -1,0 -0.3,0 -0.6,0 -0.9,0 -0.3,0 -0.6,0.1 -1,0.1 -0.2,0 -0.4,0.2 -0.4,0.4 v 31.7 c 0,0.2 0.2,0.4 0.4,0.4 0.3,0 0.6,0.1 1.1,0.1 0.5,0 0.8,0 1,0 0.3,0 0.6,0 1,0 0.5,0 0.8,-0.1 1.1,-0.1 0.2,0 0.4,-0.2 0.4,-0.4 v -16.3 c 0,-4 0.8,-6.9 2.4,-8.6 1.6,-1.7 3.8,-2.5 6.4,-2.5 h 0.6 c 0.2,0 0.4,0 0.7,0.1 0,0 0,0 0.1,0 0.2,0 0.4,-0.1 0.4,-0.4 0.1,-0.6 0.2,-1.3 0.2,-2 0,-0.6 -0.1,-1.3 -0.2,-2.1 0.2,0 0,-0.2 -0.2,-0.2 z"
       id="path19164"
       style="fill:#3f3f3f;fill-opacity:1" />
    <path
       class="st1"
       d="m 554.9,131.6 c -0.1,-0.1 -0.2,-0.2 -0.3,-0.2 -0.3,0 -0.6,-0.1 -1,-0.1 -0.4,0 -0.8,0 -1.1,0 -0.3,0 -0.7,0 -1.1,0 -0.4,0 -0.8,0.1 -1,0.1 -0.2,0 -0.3,0.1 -0.3,0.3 l -9.9,29.5 -10.2,-29.5 c -0.1,-0.2 -0.2,-0.3 -0.3,-0.3 -0.3,0 -0.6,-0.1 -1.2,-0.1 -0.5,0 -0.9,0 -1.3,0 -0.4,0 -0.9,0 -1.3,0 -0.5,0 -0.8,0.1 -1.1,0.1 -0.1,0 -0.2,0.1 -0.3,0.2 -0.1,0.1 -0.1,0.3 0,0.4 l 11.4,31.7 c 0.1,0.2 0.2,0.3 0.3,0.3 0.3,0 0.6,0.1 1.1,0.1 0.5,0 0.9,0 1.3,0 h 0.6 l -2.4,7.1 c -0.5,1.5 -1.1,2.5 -1.8,3 -0.6,0.5 -1.5,0.8 -2.6,0.8 -0.8,0 -1.5,-0.1 -2.1,-0.2 -0.6,-0.1 -1.1,-0.3 -1.4,-0.4 -0.1,0 -0.1,0 -0.2,0 -0.2,0 -0.3,0.1 -0.4,0.2 -0.7,1.1 -1,2.3 -1,3.7 0,0.2 0.1,0.4 0.3,0.4 0.6,0.2 1.3,0.3 2.2,0.5 0.9,0.2 1.8,0.3 2.7,0.3 1.9,0 3.7,-0.5 5.1,-1.4 1.4,-1 2.6,-2.6 3.3,-5 l 13.9,-41 c 0.2,-0.2 0.2,-0.4 0.1,-0.5 z"
       id="path19166"
       style="fill:#3f3f3f;fill-opacity:1" />
    <path
       class="st1"
       d="m 217.3,124 c -1.9,-2 -4.4,-3.6 -7.3,-4.6 -2.9,-1.1 -6.4,-1.6 -10.3,-1.6 -0.8,0 -1.6,0 -2.6,0.1 -1,0 -1.9,0.1 -2.9,0.2 -0.9,0.1 -1.8,0.1 -2.7,0.2 -0.9,0.1 -1.6,0.2 -2.2,0.3 -0.2,0 -0.4,0.2 -0.4,0.4 v 44.6 c 0,0.2 0.2,0.4 0.4,0.4 0.5,0.1 1.2,0.2 2,0.3 0.8,0.1 1.7,0.2 2.6,0.3 0.9,0.1 1.9,0.1 2.9,0.2 1,0 2,0.1 2.8,0.1 15.4,0 23.2,-7.9 23.2,-23.6 0,-3.6 -0.5,-6.8 -1.4,-9.7 -0.7,-3.1 -2.2,-5.6 -4.1,-7.6 z m -1,26 c -0.8,2.4 -2,4.3 -3.6,5.7 -1.6,1.4 -3.5,2.5 -5.7,3.1 -2.2,0.6 -4.8,0.9 -7.6,0.9 -1.1,0 -2.1,0 -3.1,-0.1 -0.8,-0.1 -1.6,-0.1 -2.2,-0.2 V 123 c 0.6,-0.1 1.4,-0.1 2.3,-0.2 1.1,0 2.1,-0.1 3.1,-0.1 5.7,0 10.2,1.5 13.4,4.4 3.2,2.9 4.8,7.5 4.8,13.8 -0.1,3.6 -0.5,6.7 -1.4,9.1 z"
       id="path19168"
       style="fill:#3f3f3f;fill-opacity:1" />
    <path
       class="st1"
       d="m 389.9,118.8 c 0,-0.2 -0.2,-0.4 -0.4,-0.4 h -22.8 c -0.2,0 -0.4,0.1 -0.4,0.4 0,0.2 0,44.7 0,44.7 0,0.2 0.2,0.4 0.4,0.4 0.3,0 0.6,0.1 1.1,0.1 0.5,0 0.8,0 1,0 0.3,0 0.6,0 1,0 0.5,0 0.8,-0.1 1.1,-0.1 0.2,0 0.4,-0.2 0.4,-0.4 v -20.9 h 15.4 c 0.2,0 0.4,-0.1 0.4,-0.4 0,-0.2 0.1,-0.5 0.1,-0.8 0,-0.3 0,-0.6 0,-1 0,-0.3 0,-0.7 0,-1 0,-0.4 -0.1,-0.6 -0.1,-0.9 0,-0.2 -0.2,-0.4 -0.4,-0.4 h -15.4 v -15.4 h 18.3 c 0.2,0 0.4,-0.1 0.4,-0.4 0,-0.2 0.1,-0.5 0.1,-0.8 0,-0.3 0,-0.6 0,-1 0,-0.3 0,-0.7 0,-1 -0.1,-0.1 -0.1,-0.4 -0.2,-0.7 z"
       id="path19170"
       style="fill:#3f3f3f;fill-opacity:1" />
  </g>
  <g
     id="g19216"
     transform="matrix(0.36273677,0,0,0.36273677,-20.140085,-38.122255)"
     style="fill:#3f3f3f;fill-opacity:1">
    <path
       class="st1"
       d="m 205.4,217.7 h -11.1 l -1.9,4.9 h -3 l 8.8,-22 h 3.4 l 8.9,22 h -3 z m -10.3,-2.5 h 9.5 L 199.9,203 Z"
       id="path19174"
       style="fill:#3f3f3f;fill-opacity:1" />
    <path
       class="st1"
       d="m 223.9,212.1 c 0,-2.8 -1.4,-3.7 -3.6,-3.7 -1.9,0 -3.8,1.2 -4.7,2.5 v 11.6 h -2.5 v -15.9 h 2.5 v 2.3 c 1.1,-1.3 3.3,-2.7 5.7,-2.7 3.3,0 5.1,1.7 5.1,5.1 v 11.2 h -2.5 z"
       id="path19176"
       style="fill:#3f3f3f;fill-opacity:1" />
    <path
       class="st1"
       d="m 239.4,202.3 c 0,-0.9 0.8,-1.6 1.6,-1.6 0.9,0 1.7,0.7 1.7,1.6 0,0.9 -0.8,1.7 -1.7,1.7 -0.9,-0.1 -1.6,-0.8 -1.6,-1.7 z m 0.4,4.3 h 2.5 v 15.9 h -2.5 z"
       id="path19178"
       style="fill:#3f3f3f;fill-opacity:1" />
    <path
       class="st1"
       d="m 258,212.1 c 0,-2.8 -1.4,-3.7 -3.6,-3.7 -1.9,0 -3.8,1.2 -4.7,2.5 v 11.6 h -2.5 v -15.9 h 2.5 v 2.3 c 1.1,-1.3 3.3,-2.7 5.7,-2.7 3.3,0 5.1,1.7 5.1,5.1 v 11.2 H 258 Z"
       id="path19180"
       style="fill:#3f3f3f;fill-opacity:1" />
    <path
       class="st1"
       d="m 265.9,219.2 v -10.4 h -2.6 v -2.2 h 2.6 v -4.4 h 2.5 v 4.4 h 3.2 v 2.2 h -3.2 v 9.9 c 0,1.2 0.5,2 1.6,2 0.7,0 1.4,-0.3 1.7,-0.7 l 0.7,1.8 c -0.6,0.6 -1.5,1 -3,1 -2.3,0.1 -3.5,-1.2 -3.5,-3.6 z"
       id="path19182"
       style="fill:#3f3f3f;fill-opacity:1" />
    <path
       class="st1"
       d="m 282,206.2 c 4.8,0 7.6,3.8 7.6,8.5 v 0.6 h -12.9 c 0.2,3 2.3,5.5 5.7,5.5 1.8,0 3.7,-0.7 4.9,-2 l 1.2,1.6 c -1.6,1.6 -3.7,2.4 -6.3,2.4 -4.7,0 -8.1,-3.4 -8.1,-8.4 0,-4.5 3.3,-8.2 7.9,-8.2 z m -5.2,7.4 h 10.4 c 0,-2.4 -1.6,-5.3 -5.2,-5.3 -3.4,0 -5.1,2.8 -5.2,5.3 z"
       id="path19184"
       style="fill:#3f3f3f;fill-opacity:1" />
    <path
       class="st1"
       d="m 294.8,224.8 c 1.3,1.6 2.9,2.2 5.2,2.2 2.6,0 5.1,-1.3 5.1,-4.8 v -2.3 c -1.2,1.6 -3.1,2.8 -5.3,2.8 -4.2,0 -7.1,-3.1 -7.1,-8.2 0,-5.1 2.9,-8.3 7.1,-8.3 2.1,0 4.1,1.1 5.3,2.8 v -2.4 h 2.5 v 15.5 c 0,5.3 -3.7,6.9 -7.6,6.9 -2.7,0 -4.5,-0.5 -6.4,-2.4 z M 305.1,211 c -0.9,-1.4 -2.8,-2.6 -4.7,-2.6 -3.2,0 -5.1,2.5 -5.1,6.1 0,3.5 1.9,6.1 5.1,6.1 2,0 3.9,-1.2 4.7,-2.6 z"
       id="path19186"
       style="fill:#3f3f3f;fill-opacity:1" />
    <path
       class="st1"
       d="m 312.5,206.6 h 2.5 v 2.6 c 1.3,-1.7 3.1,-2.9 5.3,-2.9 v 2.5 c -0.3,-0.1 -0.6,-0.1 -1,-0.1 -1.5,0 -3.6,1.3 -4.3,2.5 v 11.3 h -2.5 z"
       id="path19188"
       style="fill:#3f3f3f;fill-opacity:1" />
    <path
       class="st1"
       d="m 333.4,220.7 c -1.3,1.5 -3.1,2.2 -5.3,2.2 -2.7,0 -5.6,-1.8 -5.6,-5.3 0,-3.6 2.9,-5.2 5.6,-5.2 2.2,0 4,0.7 5.3,2.2 v -2.9 c 0,-2.1 -1.7,-3.4 -4,-3.4 -1.9,0 -3.5,0.7 -4.9,2.2 l -1.2,-1.7 c 1.7,-1.8 3.8,-2.6 6.4,-2.6 3.4,0 6.2,1.5 6.2,5.4 v 10.9 h -2.5 z m 0,-4.5 c -1,-1.3 -2.6,-2 -4.4,-2 -2.3,0 -3.9,1.5 -3.9,3.5 0,2 1.6,3.5 3.9,3.5 1.7,0 3.4,-0.7 4.4,-2 z"
       id="path19190"
       style="fill:#3f3f3f;fill-opacity:1" />
    <path
       class="st1"
       d="m 341.3,219.2 v -10.4 h -2.6 v -2.2 h 2.6 v -4.4 h 2.5 v 4.4 h 3.2 v 2.2 h -3.2 v 9.9 c 0,1.2 0.5,2 1.6,2 0.7,0 1.4,-0.3 1.7,-0.7 l 0.7,1.8 c -0.6,0.6 -1.5,1 -3,1 -2.3,0.1 -3.5,-1.2 -3.5,-3.6 z"
       id="path19192"
       style="fill:#3f3f3f;fill-opacity:1" />
    <path
       class="st1"
       d="m 357.4,206.2 c 4.8,0 7.6,3.8 7.6,8.5 v 0.6 h -12.9 c 0.2,3 2.3,5.5 5.7,5.5 1.8,0 3.7,-0.7 4.9,-2 l 1.2,1.6 c -1.6,1.6 -3.7,2.4 -6.3,2.4 -4.7,0 -8.1,-3.4 -8.1,-8.4 0,-4.5 3.3,-8.2 7.9,-8.2 z m -5.3,7.4 h 10.4 c 0,-2.4 -1.6,-5.3 -5.2,-5.3 -3.3,0 -5,2.8 -5.2,5.3 z"
       id="path19194"
       style="fill:#3f3f3f;fill-opacity:1" />
    <path
       class="st1"
       d="m 370.1,219.2 c 1,0 1.8,0.8 1.8,1.8 0,1 -0.8,1.8 -1.8,1.8 -1,0 -1.8,-0.8 -1.8,-1.8 0,-0.9 0.8,-1.8 1.8,-1.8 z"
       id="path19196"
       style="fill:#3f3f3f;fill-opacity:1" />
    <path
       class="st1"
       d="m 375.9,202.3 c 0,-0.9 0.8,-1.6 1.6,-1.6 0.9,0 1.7,0.7 1.7,1.6 0,0.9 -0.8,1.7 -1.7,1.7 -0.8,-0.1 -1.6,-0.8 -1.6,-1.7 z m 0.5,4.3 h 2.5 v 15.9 h -2.5 z"
       id="path19198"
       style="fill:#3f3f3f;fill-opacity:1" />
    <path
       class="st1"
       d="m 382.9,214.6 c 0,-4.6 3,-8.3 7.9,-8.3 4.8,0 7.9,3.7 7.9,8.3 0,4.6 -3,8.4 -7.9,8.4 -4.9,-0.1 -7.9,-3.8 -7.9,-8.4 z m 13.1,0 c 0,-3.2 -1.9,-6.1 -5.3,-6.1 -3.4,0 -5.3,2.9 -5.3,6.1 0,3.3 1.9,6.2 5.3,6.2 3.4,-0.1 5.3,-3 5.3,-6.2 z"
       id="path19200"
       style="fill:#3f3f3f;fill-opacity:1" />
    <path
       class="st1"
       d="m 410.3,211.6 c 0,-6.8 5,-11.4 11.2,-11.4 4,0 6.7,1.9 8.4,4.4 l -2.3,1.3 c -1.3,-1.8 -3.5,-3.2 -6.1,-3.2 -4.7,0 -8.4,3.7 -8.4,8.9 0,5.2 3.7,8.9 8.4,8.9 2.6,0 4.9,-1.3 6.1,-3.2 l 2.3,1.3 c -1.8,2.5 -4.5,4.4 -8.5,4.4 -6.1,-0.1 -11.1,-4.7 -11.1,-11.4 z"
       id="path19202"
       style="fill:#3f3f3f;fill-opacity:1" />
    <path
       class="st1"
       d="m 432.5,214.6 c 0,-4.6 3,-8.3 7.9,-8.3 4.8,0 7.9,3.7 7.9,8.3 0,4.6 -3,8.4 -7.9,8.4 -4.9,-0.1 -7.9,-3.8 -7.9,-8.4 z m 13.1,0 c 0,-3.2 -1.9,-6.1 -5.3,-6.1 -3.4,0 -5.3,2.9 -5.3,6.1 0,3.3 1.9,6.2 5.3,6.2 3.5,-0.1 5.3,-3 5.3,-6.2 z"
       id="path19204"
       style="fill:#3f3f3f;fill-opacity:1" />
    <path
       class="st1"
       d="m 471.5,211.7 c 0,-2 -0.9,-3.3 -2.9,-3.3 -1.6,0 -3.4,1.2 -4.2,2.4 v 11.7 h -2.5 v -10.8 c 0,-2 -0.9,-3.3 -2.9,-3.3 -1.6,0 -3.3,1.2 -4.2,2.5 v 11.6 h -2.5 v -15.9 h 2.5 v 2.3 c 0.7,-1 2.8,-2.7 5.1,-2.7 2.4,0 3.8,1.3 4.3,3 0.9,-1.5 3,-3 5.3,-3 2.9,0 4.5,1.6 4.5,4.8 v 11.5 h -2.5 z"
       id="path19206"
       style="fill:#3f3f3f;fill-opacity:1" />
    <path
       class="st1"
       d="m 478.9,228.6 v -22 h 2.5 v 2.4 c 1.2,-1.6 3.1,-2.8 5.4,-2.8 4.2,0 7.1,3.2 7.1,8.3 0,5.1 -2.9,8.4 -7.1,8.4 -2.2,0 -4.1,-1 -5.4,-2.8 v 8.5 z m 7.2,-20.2 c -1.9,0 -3.9,1.2 -4.7,2.5 v 7.2 c 0.9,1.4 2.8,2.6 4.7,2.6 3.2,0 5.1,-2.6 5.1,-6.2 0,-3.5 -1.9,-6.1 -5.1,-6.1 z"
       id="path19208"
       style="fill:#3f3f3f;fill-opacity:1" />
    <path
       class="st1"
       d="m 507.8,220.7 c -1.3,1.5 -3.1,2.2 -5.3,2.2 -2.7,0 -5.6,-1.8 -5.6,-5.3 0,-3.6 2.9,-5.2 5.6,-5.2 2.2,0 4,0.7 5.3,2.2 v -2.9 c 0,-2.1 -1.7,-3.4 -4,-3.4 -1.9,0 -3.5,0.7 -4.9,2.2 l -1.2,-1.7 c 1.7,-1.8 3.8,-2.6 6.4,-2.6 3.4,0 6.2,1.5 6.2,5.4 v 10.9 h -2.5 z m 0,-4.5 c -1,-1.3 -2.6,-2 -4.4,-2 -2.3,0 -3.9,1.5 -3.9,3.5 0,2 1.6,3.5 3.9,3.5 1.7,0 3.4,-0.7 4.4,-2 z"
       id="path19210"
       style="fill:#3f3f3f;fill-opacity:1" />
    <path
       class="st1"
       d="m 525.9,212.1 c 0,-2.8 -1.4,-3.7 -3.6,-3.7 -1.9,0 -3.8,1.2 -4.7,2.5 v 11.6 h -2.5 v -15.9 h 2.5 v 2.3 c 1.1,-1.3 3.3,-2.7 5.7,-2.7 3.3,0 5.1,1.7 5.1,5.1 v 11.2 h -2.5 z"
       id="path19212"
       style="fill:#3f3f3f;fill-opacity:1" />
    <path
       class="st1"
       d="m 534.2,226.8 c 1.1,0 1.8,-0.4 2.4,-1.7 l 1.1,-2.4 -6.7,-16.1 h 2.7 l 5.3,13.1 5.3,-13.1 h 2.7 l -8,19.1 c -1,2.3 -2.6,3.2 -4.7,3.2 -0.5,0 -1.4,-0.1 -1.8,-0.2 l 0.4,-2.2 c 0.3,0.2 0.9,0.3 1.3,0.3 z"
       id="path19214"
       style="fill:#3f3f3f;fill-opacity:1" />
  </g>
  <metadata
     id="metadata41508">
    <rdf:RDF>
      <cc:Work
         rdf:about="">
        <dc:title>Artboard 1</dc:title>
      </cc:Work>
    </rdf:RDF>
  </metadata>
</svg>
