<?xml version="1.0" encoding="UTF-8"?>
<svg width="181px" height="27px" viewBox="0 0 181 27" version="1.1" xmlns="http://www.w3.org/2000/svg" xmlns:xlink="http://www.w3.org/1999/xlink">
    <!-- Generator: Sketch 52.5 (67469) - http://www.bohemiancoding.com/sketch -->
    <title>Logo</title>
    <desc>Created with Sketch.</desc>
    <defs>
        <polygon id="path-1" points="0.02 0.16555 4.768 0.16555 4.768 6.70075 0.02 6.70075"></polygon>
        <polygon id="path-3" points="0.33045283 0.119294118 17.8779967 0.119294118 17.8779967 17.9788235 0.33045283 17.9788235"></polygon>
    </defs>
    <g id="Homepage" stroke="none" stroke-width="1" fill="none" fill-rule="evenodd">
        <g id="Dreamforce-HomePage-V01" transform="translate(-80.000000, -35.000000)">
            <g id="Nav-Bar" transform="translate(80.000000, 28.000000)">
                <g id="Logo" transform="translate(0.000000, 7.000000)">
                    <path d="M18.8230445,14.677679 C16.9197369,14.677679 15.1221685,14.2135912 13.5302235,13.3901874 C14.9055235,12.3967441 16.5577433,11.7887238 18.3425678,11.6939138 C18.1204119,11.3713539 18.0098506,11.0439848 18.0429157,10.5352401 C18.0863136,9.86366963 18.3721886,8.86541707 18.8230445,8.37178702 C19.2742448,8.86541707 19.5601199,9.86366963 19.6035178,10.5352401 C19.6369272,11.0439848 19.5260215,11.3713539 19.3038656,11.6939138 C21.0886901,11.7887238 22.74091,12.3970876 24.1162099,13.3901874 C22.5242649,14.2135912 20.7263522,14.677679 18.8230445,14.677679 Z M30.4867453,11.1085655 C30.5291099,10.8694795 30.5552864,10.6248973 30.5552864,10.3734449 C30.5552864,8.06125009 28.6757443,6.18669255 26.3570568,6.18669255 C26.0377722,6.18669255 25.7277873,6.22550967 25.428824,6.29283847 C23.9353854,2.60418191 20.3140722,0 16.0803665,0 C10.5130366,0 6,4.50106788 6,10.053633 C6,10.1144351 6.00309985,10.1745501 6.00482199,10.2350086 C8.88492669,11.0106639 11.4867338,13.8429393 12.9512405,14.8982152 C14.5094316,16.0204764 16.6545275,16.7511314 18.8230445,16.7511314 C21.0036165,16.7511314 23.0326403,16.0620417 24.7093145,14.8882533 C26.9856374,13.3829736 28.5565723,12.9360615 30.0296897,13.0353372 C32.0924674,13.1741169 33.786363,14.8082145 33.786363,16.8988425 C33.786363,18.9894705 32.1399984,20.6843701 30.108908,20.6843701 C28.9516309,20.7125383 27.7251237,20.2903592 26.782425,19.4442835 C26.703551,19.373176 26.7893136,19.2412665 26.879898,19.2945112 C28.1604804,20.0468076 29.7978898,20.4150549 31.0257747,19.8115003 C31.9381637,19.4143977 32.5140469,18.4858786 32.5760439,17.4038085 C32.6624953,15.8968113 31.6119907,14.9988649 30.3307195,14.8236726 C29.2650601,14.677679 28.6516343,15.2156224 28.3264945,15.4646703 C28.0013547,15.7137182 27.3217988,16.3986857 26.2227299,18.495497 C25.3017302,20.2450153 23.8131135,22.2373983 22.0110676,22.9965649 L22.013823,23 L30.0272787,23 L30.0272787,22.9996565 C33.3258631,22.9996565 36,20.3322679 36,17.0424315 C36,13.9071765 33.5700623,11.3431857 30.4867453,11.1085655 Z" id="Fill-1" fill="#2E2EA3"></path>
                    <path d="M12.5400527,20.6693495 C11.5532155,19.4427197 10.7182267,18.3302366 8.51412517,15.0353688 C6.24064774,11.637089 3.14527797,11.558725 2.03490919,12.5559879 C0.783664801,13.7647263 0,15.462256 0,17.3508651 C0,21.0228822 2.94458332,24 6.57726257,24 L15.9950446,24 L16,23.9928435 C14.6390284,23.409586 13.5268898,21.8956214 12.5400527,20.6693495" id="Fill-3" fill="#2E2EA3"></path>
                    <g id="Group-7" transform="translate(0.000000, 1.000000)">
                        <mask id="mask-2" fill="white">
                            <use xlink:href="#path-1"></use>
                        </mask>
                        <g id="Clip-5"></g>
                        <path d="M3.158,3.5469 C4.04733333,3.5469 4.768,2.78985 4.768,1.85605 C4.768,0.9226 4.04733333,0.16555 3.158,0.16555 C2.26866667,0.16555 1.548,0.9226 1.548,1.85605 C1.548,2.78985 2.26866667,3.5469 3.158,3.5469" id="Fill-4" fill="#2E2EA3" mask="url(#mask-2)"></path>
                        <path d="M1.28066667,6.70075 C1.98766667,6.70075 2.561,6.09875 2.561,5.3564 C2.561,4.6137 1.98766667,4.0117 1.28066667,4.0117 C0.573333333,4.0117 0,4.6137 0,5.3564 C0,6.09875 0.573333333,6.70075 1.28066667,6.70075" id="Fill-6" fill="#2E2EA3" mask="url(#mask-2)"></path>
                    </g>
                    <path d="M2,8.99981601 C2,9.55216191 2.44755245,10 3,10 C3.5520795,10 4,9.55216191 4,8.99981601 C4,8.4474701 3.5520795,8 3,8 C2.44755245,8 2,8.4474701 2,8.99981601" id="Fill-8" fill="#2E2EA3"></path>
                    <path d="M68.784994,9.04698785 C68.6632653,9.03062912 68.5595438,9.02297184 68.4673469,9.02297184 L68.2210084,9.02297184 C67.2648259,9.02297184 66.4811525,9.22797807 65.8908764,9.63207356 C65.4734694,9.91817734 65.1187275,10.2537054 64.832413,10.6341329 C64.8284514,10.4882965 64.8234094,10.3330626 64.8165666,10.1670389 C64.8007203,9.79183224 64.7765906,9.46326537 64.744898,9.19003974 C64.7362545,9.11520724 64.6753902,9.0556893 64.5983193,9.04663979 C64.4697479,9.03167329 64.3498199,9.02018737 64.2381753,9.01218203 C64.1236495,9.0041767 64.0022809,9 63.8729892,9 C63.7595438,9 63.642497,9.0041767 63.5207683,9.01183398 C63.40012,9.02018737 63.2758703,9.03167329 63.1476591,9.04663979 C63.0633854,9.05673347 63,9.12599704 63,9.20813876 L63,20.7922093 C63,20.8719146 63.0594238,20.9394379 63.1404562,20.952316 C63.2420168,20.9686748 63.3788715,20.9805087 63.5593037,20.9885141 C63.7357743,20.9961714 63.8636255,21 63.9432173,21 C64.0393758,21 64.1711885,20.9961714 64.3390156,20.9885141 C64.5115246,20.9805087 64.6444178,20.9686748 64.7463385,20.9526641 C64.8273709,20.9397859 64.8871549,20.8719146 64.8871549,20.7922093 L64.8871549,14.8414595 C64.8871549,13.377179 65.1957983,12.3218668 65.8040816,11.7051078 C66.4109244,11.0904371 67.2320528,10.7789251 68.2444178,10.7789251 L68.4673469,10.7789251 C68.5285714,10.7789251 68.6178872,10.7858862 68.7414166,10.8001566 C68.7482593,10.8012008 68.755102,10.8015489 68.7619448,10.8015489 C68.8408163,10.8015489 68.9106843,10.7475998 68.9265306,10.670679 C68.9751501,10.4343475 69,10.1868782 69,9.93488413 C69,9.69959683 68.9755102,9.44586246 68.9272509,9.17959799 C68.9142857,9.11033443 68.8570228,9.05673347 68.784994,9.04698785" id="Fill-9" fill="#3F3F3F"></path>
                    <path d="M71.9353412,14.2632888 C72.0660201,13.162456 72.3964608,12.2930524 72.9191765,11.6783299 C73.4623107,11.0385389 74.2368555,10.7144654 75.2217118,10.7144654 C75.755998,10.7144654 76.2174579,10.8198256 76.5924792,11.0272763 C76.969202,11.2358169 77.2795644,11.5108434 77.5157393,11.8443631 C77.7532755,12.1800626 77.9312574,12.5793416 78.0442403,13.030574 C78.1449719,13.4338494 78.202144,13.8476608 78.2140548,14.2632888 L71.9353412,14.2632888 Z M78.7731836,10.5876698 C78.3668538,10.0888436 77.8584312,9.69501425 77.2618683,9.41744453 C76.667007,9.14023811 75.9806023,9 75.2217118,9 C74.3130849,9 73.519823,9.17329942 72.8647269,9.51517523 C72.2082695,9.85741434 71.6620725,10.3373484 71.2414497,10.9415348 C70.8245704,11.539545 70.5094436,12.244732 70.3052578,13.036387 C70.1027735,13.8218657 70,14.6741937 70,15.571209 C70,16.5020122 70.1102603,17.3674194 70.3283988,18.1449053 C70.5482389,18.9311106 70.8953548,19.6184953 71.3602178,20.1874406 C71.8257614,20.7578391 72.4284499,21.208345 73.1519483,21.5251523 C73.8710226,21.8401431 74.7394929,22 75.7328569,22 C76.4185809,22 77.0631274,21.9433235 77.6484601,21.8310603 C78.2358346,21.7187972 78.7565084,21.5553071 79.1958482,21.34495 C79.2567637,21.3158851 79.294538,21.2486725 79.2890931,21.1771002 C79.2734388,20.9623833 79.2424706,20.7247778 79.1978901,20.4711866 C79.1512677,20.2070594 79.0876297,19.9785367 79.0086779,19.7921581 C78.9821337,19.7300319 78.9246214,19.6929741 78.8640463,19.6929741 C78.8463502,19.6929741 78.8283138,19.6962439 78.8106177,19.7027835 C78.3610686,19.8735398 77.8941637,20.0108714 77.4224945,20.1111453 C76.9555896,20.2110558 76.4393398,20.2619194 75.8883784,20.2619194 C74.547218,20.2619194 73.5317339,19.8960651 72.8701719,19.1748924 C72.2320912,18.4787882 71.8968862,17.3801353 71.8730645,15.9065452 L79.7968351,15.9065452 C79.8785094,15.9065452 79.9469117,15.8404226 79.9550791,15.7535912 C79.9700527,15.5930077 79.981283,15.3979096 79.9887698,15.1741099 C79.9965969,14.9506735 80,14.7664748 80,14.6229669 C80,13.8185959 79.8968862,13.063272 79.6930407,12.3784305 C79.4878339,11.6885026 79.1781521,11.0861327 78.7731836,10.5876698 Z" id="Fill-10" fill="#3F3F3F"></path>
                    <path d="M89.1669128,20.0541054 C88.8203016,20.1198647 88.4631976,20.1739981 88.102596,20.2154156 C87.7003731,20.2619194 87.2610757,20.2858979 86.7965957,20.2858979 C86.4394917,20.2858979 86.0788901,20.2582863 85.7245842,20.2045162 C85.379372,20.1521994 85.0593425,20.0464759 84.77254,19.8902521 C84.4951811,19.7391146 84.2667884,19.5160416 84.0936577,19.2272092 C83.920527,18.9405567 83.8327374,18.5481806 83.8327374,18.0606171 C83.8327374,17.2914873 84.1156925,16.7167291 84.6976916,16.3036443 C85.2912327,15.88293 86.1509405,15.669303 87.2530312,15.669303 C87.592997,15.669303 87.9602441,15.6892851 88.3446293,15.7281594 C88.6622105,15.7601308 88.9360718,15.7899223 89.1669128,15.817534 L89.1669128,20.0541054 Z M86.4772657,9 C85.8655371,9 85.2583554,9.04468727 84.6735582,9.13224526 C84.0891108,9.22016656 83.5893051,9.32952322 83.1877818,9.45813538 C83.119229,9.47993405 83.072711,9.54533005 83.072711,9.62017215 C83.072711,9.86940361 83.1006917,10.136074 83.1563034,10.4132804 C83.2126146,10.7002962 83.2815172,10.9179196 83.3668584,11.0774132 C83.3962381,11.1326365 83.4515001,11.1649712 83.5095601,11.1649712 C83.525649,11.1649712 83.5417379,11.162428 83.5574771,11.1573417 C83.9446603,11.0338159 84.3906031,10.9280923 84.8834136,10.8423509 C85.3744754,10.7573361 85.9263952,10.7144654 86.5227343,10.7144654 C87.4020286,10.7144654 88.0700684,10.9411715 88.5079667,11.3887709 C88.9451656,11.8360069 89.1669128,12.5648091 89.1669128,13.555922 L89.1669128,14.1008887 C88.9409684,14.0747303 88.6737525,14.046392 88.3645655,14.0155106 C87.9637416,13.9755464 87.4824732,13.9555643 86.9337012,13.9555643 C86.2219416,13.9555643 85.5577491,14.0453021 84.9600109,14.222598 C84.3563268,14.4017104 83.8309887,14.6709239 83.3976372,15.0226091 C82.9611379,15.3775641 82.6155759,15.8197138 82.3703948,16.3381589 C82.1245142,16.8558773 82,17.4513443 82,18.1078475 C82,19.4731709 82.4344007,20.4777262 83.2916602,21.092812 C84.1293331,21.6948186 85.2859863,22 86.7283927,22 C87.4153194,22 88.1522618,21.9436868 88.9189336,21.8321502 C89.6817581,21.7213403 90.3379061,21.6090772 90.8688404,21.4986306 C90.9450878,21.4826449 91,21.4132525 91,21.3322341 L91,13.342295 C91,11.8614387 90.6208612,10.7540663 89.8730763,10.0514225 C89.1301881,9.35386507 87.987875,9 86.4772657,9 Z" id="Fill-11" fill="#3F3F3F"></path>
                    <path d="M105.1604,9 C104.72038,9 104.315628,9.06695323 103.956558,9.1991517 C103.600846,9.32964218 103.281076,9.50214922 103.005979,9.71189046 C102.733569,9.91958211 102.488703,10.1573344 102.277762,10.4179738 C102.135007,10.5938968 102.002665,10.7674286 101.881071,10.9358365 C101.77896,10.7158473 101.669794,10.5108884 101.556598,10.3240343 C101.394361,10.0572461 101.19081,9.82256825 100.951654,9.62614934 C100.71149,9.42938882 100.42598,9.27396168 100.102851,9.16430869 C99.7800569,9.05533889 99.3947869,9 98.9571176,9 C98.4895537,9 98.062633,9.06661163 97.6891193,9.1984685 C97.3172851,9.32964218 96.9827351,9.5059068 96.6942025,9.7221384 C96.4060058,9.93837001 96.1524061,10.1884198 95.9397855,10.4661391 C95.8571557,10.5740841 95.7795642,10.6844203 95.707683,10.7957813 C95.70466,10.6652908 95.6999575,10.526602 95.6942473,10.3793732 C95.6791321,10.0032736 95.6569631,9.67670586 95.6274044,9.40923454 C95.6196789,9.33579094 95.5629129,9.27737767 95.4906957,9.26849611 C95.3707817,9.2538074 95.2589292,9.24253466 95.1551381,9.2346779 C95.047988,9.22682114 94.9351278,9.22272197 94.8142061,9.22272197 C94.7087355,9.22272197 94.5995701,9.22682114 94.486038,9.2343363 C94.3735137,9.24253466 94.2572945,9.2538074 94.1380523,9.26849611 C94.0591173,9.27840246 94,9.34638048 94,9.42699764 L94,20.7960659 C94,20.8742919 94.0554224,20.9405619 94.1313344,20.9532011 C94.2257205,20.9692562 94.3533601,20.9808705 94.5216427,20.9887273 C94.6858947,20.9962424 94.8054728,21 94.8800412,21 C94.9693889,21 95.092326,20.9962424 95.2488524,20.9887273 C95.4097454,20.9808705 95.534026,20.9692562 95.628748,20.9535427 C95.70466,20.9409035 95.7604183,20.8742919 95.7604183,20.7960659 L95.7604183,15.0889863 C95.7604183,14.4225284 95.8356585,13.8028694 95.9847952,13.2477725 C96.1332602,12.6943836 96.3435296,12.2113638 96.6098932,11.8127188 C96.8728979,11.418173 97.1883019,11.1076603 97.5467004,10.8904039 C97.9003964,10.6758803 98.2937277,10.5672521 98.7156101,10.5672521 C99.3373491,10.5672521 99.8002105,10.813886 100.13073,11.320476 C100.469646,11.8420963 100.64196,12.6673973 100.64196,13.7741752 L100.64196,20.7960659 C100.64196,20.8742919 100.697382,20.9405619 100.772958,20.9532011 C100.867344,20.9692562 100.99532,20.9808705 101.164274,20.9887273 C101.32819,20.9962424 101.447097,21 101.521665,21 C101.611685,21 101.734286,20.9962424 101.890812,20.9887273 C102.052377,20.9808705 102.176322,20.9692562 102.270708,20.9532011 C102.346284,20.9405619 102.402042,20.8742919 102.402042,20.7960659 L102.402042,14.1308036 C102.402042,13.6573486 102.462503,13.2037063 102.582081,12.7814911 C102.700316,12.3637166 102.872629,11.9941074 103.095662,11.6832532 C103.314329,11.3771812 103.591777,11.1302058 103.920281,10.9495004 C104.246434,10.7698198 104.634727,10.6786131 105.072732,10.6786131 C105.798262,10.6786131 106.326287,10.9402773 106.686029,11.4782943 C107.053497,12.0289504 107.239582,12.8990008 107.239582,14.0638504 L107.239582,20.7960659 C107.239582,20.8742919 107.29534,20.9405619 107.370916,20.9532011 C107.465302,20.9692562 107.593278,20.9808705 107.761896,20.9887273 C107.925812,20.9962424 108.045055,21 108.119959,21 C108.209306,21 108.331908,20.9962424 108.48877,20.9887273 C108.649663,20.9808705 108.773944,20.9692562 108.868666,20.9535427 C108.944578,20.9409035 109,20.8742919 109,20.7960659 L109,13.5511116 C109,12.1099092 108.697696,10.9819522 108.101485,10.1986678 C107.494861,9.40342737 106.505318,9 105.1604,9" id="Fill-12" fill="#3F3F3F"></path>
                    <path d="M128.166913,20.0541054 C127.820302,20.1198647 127.462848,20.1739981 127.102946,20.2154156 C126.700023,20.2619194 126.261076,20.2858979 125.796246,20.2858979 C125.439492,20.2858979 125.07924,20.2582863 124.724584,20.2045162 C124.379722,20.1521994 124.059342,20.0464759 123.77254,19.8902521 C123.495181,19.7391146 123.266788,19.5160416 123.093658,19.2272092 C122.920527,18.9405567 122.832737,18.5481806 122.832737,18.0606171 C122.832737,17.2914873 123.115343,16.7167291 123.697342,16.3036443 C124.291233,15.88293 125.15094,15.669303 126.253031,15.669303 C126.592997,15.669303 126.960594,15.6892851 127.344279,15.7281594 C127.66221,15.7601308 127.936422,15.7899223 128.166913,15.817534 L128.166913,20.0541054 Z M125.477266,9 C124.865187,9 124.258355,9.04468727 123.673208,9.13224526 C123.089111,9.22016656 122.589655,9.32952322 122.187782,9.45813538 C122.119579,9.47993405 122.072711,9.54533005 122.072711,9.62017215 C122.072711,9.86940361 122.100692,10.136074 122.155954,10.4132804 C122.212265,10.7002962 122.281517,10.9179196 122.366858,11.0774132 C122.396238,11.1326365 122.4515,11.1649712 122.50956,11.1649712 C122.525649,11.1649712 122.541738,11.162428 122.557827,11.1573417 C122.944311,11.0338159 123.390603,10.9280923 123.883414,10.8423509 C124.374475,10.7573361 124.926045,10.7144654 125.522734,10.7144654 C126.402029,10.7144654 127.070068,10.9411715 127.508316,11.3887709 C127.945166,11.8360069 128.166913,12.5648091 128.166913,13.555922 L128.166913,14.1008887 C127.940968,14.0747303 127.673753,14.046392 127.364566,14.0155106 C126.963742,13.9755464 126.482123,13.9555643 125.933701,13.9555643 C125.221942,13.9555643 124.557749,14.0453021 123.960011,14.222598 C123.356677,14.4017104 122.830989,14.6709239 122.397987,15.0226091 C121.961138,15.3775641 121.615576,15.8197138 121.370395,16.3381589 C121.124514,16.8558773 121,17.4513443 121,18.1078475 C121,19.4731709 121.434401,20.4777262 122.29166,21.092812 C123.129333,21.6948186 124.285637,22 125.728043,22 C126.415319,22 127.152262,21.9436868 127.918934,21.8321502 C128.681758,21.7213403 129.337906,21.6090772 129.86884,21.4986306 C129.945438,21.4826449 130,21.4132525 130,21.3322341 L130,13.342295 C130,11.8614387 129.620861,10.7540663 128.873076,10.0514225 C128.130188,9.35386507 126.987875,9 125.477266,9 Z" id="Fill-13" fill="#3F3F3F"></path>
                    <path d="M141.847407,20.6252306 C141.776945,20.3476608 141.700581,20.121318 141.620746,19.9534682 C141.592978,19.8938852 141.535705,19.8590073 141.475656,19.8590073 C141.457259,19.8590073 141.438168,19.8619138 141.420466,19.86918 C141.099045,19.9916159 140.730417,20.0926164 140.324996,20.1700017 C139.922352,20.2466603 139.494023,20.2858979 139.051808,20.2858979 C137.773067,20.2858979 136.74806,19.8993349 136.005251,19.1367447 C135.263137,18.3759712 134.88722,17.1523392 134.88722,15.5 C134.88722,14.7915432 134.969137,14.1375831 135.130195,13.5555587 C135.28917,12.9800738 135.534574,12.4732547 135.859466,12.0496339 C136.181929,11.6300095 136.589085,11.299033 137.069828,11.0661506 C137.55196,10.8325415 138.127116,10.7144654 138.780024,10.7144654 C139.297213,10.7144654 139.787328,10.753703 140.237873,10.8307249 C140.686335,10.9081102 141.062251,11.0011179 141.353821,11.1079314 C141.371524,11.1141077 141.38992,11.1173775 141.407623,11.1173775 C141.471838,11.1173775 141.532581,11.0766866 141.55792,11.010564 C141.622135,10.8427142 141.681837,10.6178246 141.736333,10.3417081 C141.790829,10.0641384 141.818597,9.81309038 141.818597,9.59655693 C141.818597,9.52425801 141.774862,9.46031524 141.709953,9.43633671 C141.399639,9.32298362 140.975128,9.22052988 140.447525,9.13260857 C139.918881,9.04468727 139.35761,9 138.780024,9 C137.8411,9 136.999713,9.16821307 136.279466,9.50027947 C135.557136,9.83379912 134.94727,10.299564 134.466527,10.8848583 C133.986478,11.4679727 133.617503,12.1611704 133.37071,12.9455592 C133.124611,13.7255883 133,14.5848192 133,15.5 C133,17.5904924 133.510594,19.2130401 134.517204,20.323319 C135.52555,21.4361411 137.01325,22 138.938304,22 C139.53394,22 140.085493,21.950953 140.576649,21.8546755 C141.06607,21.7587614 141.508978,21.6366888 141.892531,21.492091 C141.967159,21.464116 142.011589,21.383461 141.997357,21.3020793 C141.966118,21.1229669 141.91544,20.8955341 141.847407,20.6252306" id="Fill-14" fill="#3F3F3F"></path>
                    <path d="M149.672419,20.1404161 C149.647682,20.1276671 149.620035,20.1209385 149.592752,20.1209385 C149.574199,20.1209385 149.555646,20.1241257 149.537457,20.1297919 C149.145304,20.2622399 148.676758,20.3288181 148.145278,20.3288181 C147.934287,20.3288181 147.724751,20.3104028 147.523218,20.2739265 C147.336963,20.2402833 147.169625,20.1694555 147.025205,20.0621514 C146.882604,19.956618 146.764376,19.8032758 146.673796,19.6060204 C146.581032,19.4059318 146.534105,19.1215582 146.534105,18.7606906 L146.534105,11.2532979 L149.640043,11.2532979 C149.721529,11.2532979 149.791011,11.1976981 149.806653,11.1201417 C149.823751,11.0365649 149.836483,10.9313856 149.845577,10.7985834 C149.853581,10.6710934 149.857946,10.5446658 149.857946,10.417884 C149.857946,10.290394 149.853581,10.1710491 149.845577,10.0598495 C149.836483,9.94227534 149.823751,9.8455954 149.807017,9.76201859 C149.791374,9.68410801 149.721529,9.62850819 149.640043,9.62850819 L146.534105,9.62850819 L146.534105,6.16538291 C146.534105,6.07401505 146.458075,6 146.36422,6 L146.269274,6 C146.224893,6 146.181968,6.01699867 146.150319,6.04745463 L144.678109,7.45728198 C144.646096,7.48844622 144.627907,7.5309429 144.627907,7.57521027 L144.627907,9.62850819 L143.217903,9.62850819 C143.136781,9.62850819 143.067299,9.68375387 143.051293,9.76095618 C143.033831,9.84524126 143.021099,9.94262948 143.012368,10.0591412 C143.004002,10.170695 143,10.290394 143,10.417884 C143,10.5450199 143.004002,10.6714475 143.012368,10.7982293 C143.021099,10.9310314 143.033831,11.036919 143.051656,11.1212041 C143.067663,11.1980522 143.137144,11.2532979 143.217903,11.2532979 L144.627907,11.2532979 L144.627907,18.830456 C144.627907,19.938911 144.931298,20.7544931 145.52935,21.2548915 C146.120125,21.7492696 146.896064,22 147.836067,22 C148.608732,22 149.296636,21.9118194 149.879773,21.7386454 C149.957257,21.7152722 150.007459,21.6423196 149.999092,21.5637008 C149.951437,21.095529 149.869587,20.6510846 149.756816,20.2434706 C149.744447,20.1992032 149.71389,20.1616645 149.672419,20.1404161" id="Fill-15" fill="#3F3F3F"></path>
                    <path d="M159.157984,19.0299313 C158.569869,19.874993 157.70042,20.2858979 156.499821,20.2858979 C155.299221,20.2858979 154.430131,19.874993 153.841658,19.0299313 C153.249242,18.1786932 152.948555,16.991029 152.948555,15.5 C152.948555,14.0093343 153.249242,12.8220334 153.841658,11.9700687 C154.430131,11.1253703 155.299221,10.7144654 156.499821,10.7144654 C157.70042,10.7144654 158.569511,11.1253703 159.157984,11.9700687 C159.751116,12.8223967 160.051445,14.0096976 160.051445,15.5 C160.051445,16.9903024 159.751116,18.1783299 159.157984,19.0299313 Z M160.618773,10.8899447 C160.16147,10.3039238 159.582674,9.83706892 158.899945,9.50282265 C158.216499,9.169303 157.409051,9 156.499821,9 C155.590591,9 154.779559,9.16893969 154.088945,9.50245934 C153.398332,9.83670561 152.815952,10.3035604 152.357932,10.8899447 C151.901704,11.4745123 151.557293,12.1724331 151.334376,12.9640881 C151.112534,13.7502934 151,14.6033481 151,15.5 C151,16.3966519 151.112534,17.2500699 151.334376,18.0359119 C151.556935,18.8275669 151.901346,19.5254877 152.357932,20.1100553 C152.817027,20.6975295 153.399407,21.1643843 154.088945,21.4975407 C154.7792,21.830697 155.590591,22 156.499821,22 C157.409051,22 158.216857,21.830697 158.899586,21.496814 C159.581957,21.164021 160.160395,20.6971662 160.618773,20.1100553 C161.074642,19.5269409 161.422279,18.8297468 161.654156,18.0377285 C161.883166,17.2511598 162,16.3973786 162,15.5 C162,14.6029847 161.883166,13.7492035 161.654156,12.9622715 C161.422279,12.1702532 161.074284,11.4730591 160.618773,10.8899447 Z" id="Fill-16" fill="#3F3F3F"></path>
                    <g id="Group-20" transform="translate(163.000000, 9.000000)">
                        <mask id="mask-4" fill="white">
                            <use xlink:href="#path-3"></use>
                        </mask>
                        <g id="Clip-18"></g>
                        <path d="M5.48660377,0.142588235 L5.25362264,0.142588235 C4.35260377,0.142588235 3.61324528,0.350470588 3.05660377,0.760235294 C2.66298113,1.05035294 2.32879245,1.39058824 2.05845283,1.77635294 C2.05471698,1.62847059 2.04962264,1.47105882 2.04350943,1.30270588 C2.02822642,0.922235294 2.0054717,0.588705882 1.97626415,0.312 C1.96777358,0.236117647 1.91037736,0.175764706 1.83735849,0.166588235 C1.71645283,0.151411765 1.60335849,0.139764706 1.49807547,0.131647059 C1.39007547,0.123529412 1.27562264,0.119294118 1.15369811,0.119294118 C1.04671698,0.119294118 0.936339623,0.123529412 0.82154717,0.131294118 C0.707773585,0.139764706 0.590264151,0.151411765 0.469698113,0.166588235 C0.390226415,0.176823529 0.33045283,0.247058824 0.33045283,0.330352941 L0.33045283,12.0769412 C0.33045283,12.1577647 0.386490566,12.2262353 0.46290566,12.2392941 C0.558679245,12.2558824 0.687735849,12.2678824 0.857886792,12.276 C1.02430189,12.2837647 1.1445283,12.2876471 1.21992453,12.2876471 C1.31060377,12.2876471 1.43490566,12.2837647 1.59316981,12.276 C1.75584906,12.2678824 1.88116981,12.2558824 1.97728302,12.2396471 C2.05369811,12.2265882 2.11007547,12.1577647 2.11007547,12.0769412 L2.11007547,6.04270588 C2.11007547,4.55788235 2.40113208,3.48776471 2.97475472,2.86235294 C3.54701887,2.23905882 4.32135849,1.92317647 5.27569811,1.92317647 L5.48660377,1.92317647 C5.54366038,1.92317647 5.62822642,1.93023529 5.74437736,1.94470588 C5.75116981,1.94576471 5.75728302,1.94611765 5.76373585,1.94611765 C5.83845283,1.94611765 5.90433962,1.89141176 5.91928302,1.81376471 C5.9654717,1.57376471 5.98856604,1.32282353 5.98856604,1.06729412 C5.98856604,0.828705882 5.9654717,0.571058824 5.91996226,0.301411765 C5.90773585,0.231176471 5.85373585,0.176823529 5.7854717,0.166941176 C5.67101887,0.150352941 5.57320755,0.142588235 5.48660377,0.142588235 Z" id="Fill-17" fill="#3F3F3F" mask="url(#mask-4)"></path>
                        <path d="M17.8553208,0.245294118 C17.8312075,0.204 17.7911321,0.175411765 17.7449434,0.167647059 C17.6515472,0.151764706 17.5262264,0.139764706 17.3730566,0.131294118 C17.2219245,0.123529412 17.0864151,0.119294118 16.9658491,0.119294118 C16.8456226,0.119294118 16.709434,0.123529412 16.5589811,0.131294118 C16.4037736,0.139764706 16.2821887,0.151411765 16.1870943,0.167647059 C16.1290189,0.177529412 16.0811321,0.219882353 16.0621132,0.278117647 L12.5324151,11.2397647 L8.93784906,0.277058824 C8.91883019,0.219529412 8.8709434,0.177176471 8.81286792,0.167647059 C8.71743396,0.151411765 8.58124528,0.139764706 8.39581132,0.131294118 C8.2154717,0.123529412 8.06535849,0.119294118 7.9454717,0.119294118 C7.79535849,0.119294118 7.63777358,0.123529412 7.4730566,0.131294118 C7.30222642,0.139764706 7.17316981,0.151411765 7.07807547,0.167647059 C7.03120755,0.175411765 6.99045283,0.204352941 6.96667925,0.246705882 C6.94290566,0.288705882 6.93815094,0.339882353 6.95445283,0.386117647 L11.0323019,12.1330588 C11.0516604,12.1891765 11.0988679,12.2297647 11.1555849,12.2392941 C11.2513585,12.2558824 11.3844906,12.2678824 11.5624528,12.276 C11.7343019,12.2837647 11.8884906,12.2876471 12.0236604,12.2876471 L12.2250566,12.2876471 L11.3858491,14.9272941 C11.2044906,15.4757647 10.9942642,15.8534118 10.7606038,16.0482353 C10.5320377,16.2381176 10.218566,16.3344706 9.82935849,16.3344706 C9.54645283,16.3344706 9.28935849,16.3087059 9.06520755,16.2575294 C8.83664151,16.2056471 8.66479245,16.1572941 8.55543396,16.1149412 C8.53709434,16.1075294 8.51807547,16.104 8.49973585,16.104 C8.4450566,16.104 8.39309434,16.1332941 8.36388679,16.1841176 C8.12818868,16.5921176 8.00864151,17.0548235 8.00864151,17.5588235 C8.00864151,17.6325882 8.05550943,17.6971765 8.12377358,17.7172941 C8.33535849,17.7801176 8.60501887,17.8429412 8.9249434,17.9050588 C9.252,17.9682353 9.57871698,17.9996471 9.89592453,17.9996471 C10.589434,17.9996471 11.2007547,17.8203529 11.712566,17.4656471 C12.2281132,17.1081176 12.6295472,16.4827059 12.9056604,15.606 L17.8695849,0.382941176 C17.8845283,0.337411765 17.879434,0.286941176 17.8553208,0.245294118" id="Fill-19" fill="#3F3F3F" mask="url(#mask-4)"></path>
                    </g>
                    <path d="M57.6605358,15.6720177 C57.3642395,16.5345415 56.9365919,17.2349109 56.3890149,17.7541503 C55.8414378,18.2730446 55.1672126,18.6463449 54.3858235,18.8633559 C53.5930125,19.083127 52.6900143,19.1949101 51.70236,19.1949101 C51.3267826,19.1949101 50.9589317,19.1800747 50.6095574,19.1504039 C50.3146049,19.1255632 50.0529101,19.1014125 49.8231293,19.0765718 L49.8231293,5.89375736 C50.0418241,5.86167147 50.3102377,5.83959086 50.6243386,5.82717052 C51.0110019,5.81233511 51.3734778,5.80508991 51.70236,5.80508991 C53.7095826,5.80508991 55.2975561,6.33916467 56.4226085,7.3928238 C57.5432939,8.44268783 58.111699,10.1228843 58.111699,12.3875269 C58.111699,13.6968381 57.9598555,14.8019036 57.6605358,15.6720177 Z M57.9981523,6.26360758 C57.3198959,5.53701749 56.4531788,4.97154686 55.4218527,4.58306612 C54.3952297,4.19596542 53.1727555,4 51.7893676,4 C51.5142353,4 51.2115562,4.0072452 50.8638616,4.02242562 C50.526581,4.03760604 50.1903082,4.05623655 49.8536995,4.07900718 C49.5238095,4.10108779 49.201982,4.12765353 48.8962795,4.15801437 C48.5875535,4.18906523 48.3382884,4.21908106 48.1343747,4.24875188 C48.0571093,4.26013719 48,4.32775906 48,4.40814628 L48,20.5694281 C48,20.6484353 48.0561015,20.7164022 48.1326951,20.7281325 C48.3231712,20.7581483 48.5616864,20.7919592 48.8479046,20.8299103 C49.13849,20.8678613 49.4509112,20.8985672 49.776434,20.9206478 C50.106324,20.9434184 50.446964,20.962049 50.798018,20.9772294 C51.1557907,20.9924098 51.489376,21 51.7893676,21 C57.2375913,21 60,18.1250355 60,12.4548038 C60,11.1565329 59.8357269,9.97142509 59.5112119,8.93294638 C59.1843453,7.8882575 58.675401,6.99019767 57.9981523,6.26360758 Z" id="Fill-21" fill="#3F3F3F"></path>
                    <path d="M120.950152,4.13371584 C120.934731,4.05604006 120.865876,4 120.785904,4 L112.171859,4 C112.092245,4 112.023749,4.05568537 112.007969,4.13265178 C111.990038,4.21883997 112.007969,20.7882537 112.007969,20.7882537 C112.007969,20.8694763 112.067142,20.938285 112.147831,20.9514083 C112.248962,20.9680784 112.384879,20.9801377 112.564547,20.9882954 C112.740629,20.9960985 112.867581,21 112.947194,21 C113.042946,21 113.174201,20.9960985 113.340959,20.9882954 C113.513096,20.9801377 113.645427,20.9680784 113.746558,20.951763 C113.827606,20.9386397 113.887137,20.8694763 113.887137,20.7882537 L113.887137,13.0047152 L119.701797,13.0047152 C119.78141,13.0047152 119.850624,12.9486752 119.866044,12.8709994 C119.8829,12.7876487 119.895451,12.6872731 119.9037,12.5730649 C119.911948,12.4616941 119.915893,12.341811 119.915893,12.2137701 C119.915893,12.0871479 119.912306,11.9601711 119.9037,11.8328396 C119.895451,11.7016065 119.883258,11.5962654 119.866044,11.5104319 C119.850624,11.4331108 119.781769,11.3770707 119.701797,11.3770707 L113.887137,11.3770707 L113.887137,5.62764448 L120.785904,5.62764448 C120.865876,5.62764448 120.934373,5.57160442 120.950152,5.49428333 C120.966648,5.41057793 120.9792,5.31055706 120.987807,5.19599416 C120.996055,5.08462341 121,4.96474025 121,4.83705404 C121,4.7100772 120.996055,4.58345504 120.988166,4.45612351 C120.979559,4.32489047 120.967007,4.21919466 120.950152,4.13371584" id="Fill-22" fill="#3F3F3F"></path>
                </g>
            </g>
        </g>
    </g>
</svg>